<svg xmlns="http://www.w3.org/2000/svg" xmlns:xlink="http://www.w3.org/1999/xlink" viewBox="0 0 512 512" width="512" height="512" preserveAspectRatio="xMidYMid meet" style="width: 100%; height: 100%; transform: translate3d(0px, 0px, 0px); content-visibility: visible;"><defs><clipPath id="__lottie_element_430"><rect width="512" height="512" x="0" y="0"/></clipPath></defs><g clip-path="url(#__lottie_element_430)"><g transform="matrix(1.0319998264312744,0,0,1.0319998264312744,-8.191969871520996,16.780031204223633)" opacity="0.0019999999999859596" style="display: none;"><g opacity="1" transform="matrix(1,0,0,1,119.0250015258789,382.59600830078125)"><path fill="rgb(103,102,102)" fill-opacity="1" d=" M-10.666999816894531,-2.8540000915527344 C-11.001999855041504,-6.732999801635742 -10.637999534606934,-10.402999877929688 -9.861000061035156,-14.118000030517578 C-9.093000411987305,-17.81100082397461 -7.7789998054504395,-21.43000030517578 -5.948999881744385,-24.83300018310547 C-4.085999965667725,-28.211000442504883 -1.649999976158142,-31.37700080871582 1.4220000505447388,-33.84400177001953 C4.442999839782715,-36.35599899291992 8.081000328063965,-38.0989990234375 11.814000129699707,-38.88399887084961 C12.73900032043457,-39.077999114990234 13.645999908447266,-38.486000061035156 13.84000015258789,-37.5620002746582 C13.996000289916992,-36.81999969482422 12.968000411987305,-35.696998596191406 12.968000411987305,-35.696998596191406 C4.076000213623047,-30.559999465942383 -1.2450000047683716,-22.29400062561035 -4.254000186920166,-12.666999816894531 C-5.243000030517578,-9.470000267028809 -6.678999900817871,-2.6559998989105225 -6.678999900817871,-2.6559998989105225 C-6.883999824523926,-1.562000036239624 -7.936999797821045,-0.8420000076293945 -9.031000137329102,-1.0470000505447388 C-9.9399995803833,-1.218000054359436 -10.590999603271484,-1.9759999513626099 -10.666999816894531,-2.8540000915527344z"/></g><g opacity="1" transform="matrix(1,0,0,1,116.06999969482422,364.20001220703125)"><path fill="rgb(103,102,102)" fill-opacity="1" d=" M-17.235000610351562,-8.72599983215332 C-15.9399995803833,-12.529000282287598 -14.071999549865723,-15.843999862670898 -11.795999526977539,-19.02899932861328 C-9.53600025177002,-22.198999404907227 -6.791999816894531,-25.06999969482422 -3.6510000228881836,-27.524999618530273 C-0.4880000054836273,-29.94099998474121 3.127000093460083,-31.920000076293945 7.052000045776367,-32.974998474121094 C10.947999954223633,-34.09199905395508 15.107000350952148,-34.22800064086914 18.95800018310547,-33.41899871826172 C19.910999298095703,-33.21900177001953 20.52199935913086,-32.28300094604492 20.320999145507812,-31.32900047302246 C20.15999984741211,-30.56399917602539 18.722999572753906,-29.930999755859375 18.722999572753906,-29.930999755859375 C8.194000244140625,-28.770999908447266 -0.2630000114440918,-23.173999786376953 -7.104000091552734,-15.331000328063965 C-9.366000175476074,-12.722999572753906 -11.538000106811523,-9.829000473022461 -13.465999603271484,-7.008999824523926 C-13.465999603271484,-7.008999824523926 -15.493000030517578,-5.691999912261963 -16.44099998474121,-6.340000152587891 C-17.22800064086914,-6.879000186920166 -17.527999877929688,-7.864999771118164 -17.235000610351562,-8.72599983215332z"/></g></g><g transform="matrix(0.8020158410072327,0.6494568586349487,-0.6494568586349487,0.8020158410072327,274.9615478515625,-42.697750091552734)" opacity="1" style="display: block;"><g opacity="1" transform="matrix(1,0,0,1,164.34300231933594,384.74798583984375)"><path fill="rgb(237,238,245)" fill-opacity="1" d=" M24.299999237060547,-0.4189999997615814 C11.592998504638672,6.313986778259277 -14.096772193908691,12.082076072692871 -27.46274757385254,9.37525463104248 C-46.27375411987305,5.565565586090088 -50.96205139160156,-34.38875198364258 -30.162931442260742,-28.78692054748535 C-13.543965339660645,-24.311010360717773 0.8929654359817505,-20.407033920288086 13.062983512878418,-26.105989456176758 C27.39896583557129,-32.81993103027344 32.80099868774414,-22.627981185913086 34.154998779296875,-16.94498062133789 C35.50899887084961,-11.260980606079102 33.18000411987305,-5.1239914894104 24.299999237060547,-0.4189999997615814z"/><path stroke-linecap="round" stroke-linejoin="round" fill-opacity="0" stroke="rgb(153,160,163)" stroke-opacity="1" stroke-width="7" d=" M24.299999237060547,-0.4189999997615814 C11.592998504638672,6.313986778259277 -14.096772193908691,12.082076072692871 -27.46274757385254,9.37525463104248 C-46.27375411987305,5.565565586090088 -50.96205139160156,-34.38875198364258 -30.162931442260742,-28.78692054748535 C-13.543965339660645,-24.311010360717773 0.8929654359817505,-20.407033920288086 13.062983512878418,-26.105989456176758 C27.39896583557129,-32.81993103027344 32.80099868774414,-22.627981185913086 34.154998779296875,-16.94498062133789 C35.50899887084961,-11.260980606079102 33.18000411987305,-5.1239914894104 24.299999237060547,-0.4189999997615814z"/></g></g><g transform="matrix(1.0319998264312744,0,0,1.0319998264312744,-8.191969871520996,16.780031204223633)" opacity="1" style="display: block;"><g opacity="1" transform="matrix(1,0,0,1,0,0)"><g opacity="1" transform="matrix(1,0,0,1,321.47198486328125,424.3059997558594)"><path fill="rgb(237,238,245)" fill-opacity="1" d=" M30.33300018310547,-38.70800018310547 C30.33300018310547,-38.70800018310547 31.80299949645996,2.757999897003174 30.33300018310547,16.444000244140625 C28.863000869750977,30.128999710083008 19.535999298095703,35.8489990234375 3.058000087738037,37.27899932861328 C-13.418999671936035,38.70899963378906 -23.3700008392334,33.5099983215332 -25.913000106811523,21.7549991607666 C-27.757999420166016,13.225000381469727 -31.80299949645996,-7.659999847412109 -31.80299949645996,-7.659999847412109"/><path stroke-linecap="round" stroke-linejoin="round" fill-opacity="0" stroke="rgb(153,160,163)" stroke-opacity="1" stroke-width="7" d=" M30.33300018310547,-38.70800018310547 C30.33300018310547,-38.70800018310547 31.80299949645996,2.757999897003174 30.33300018310547,16.444000244140625 C28.863000869750977,30.128999710083008 19.535999298095703,35.8489990234375 3.058000087738037,37.27899932861328 C-13.418999671936035,38.70899963378906 -23.3700008392334,33.5099983215332 -25.913000106811523,21.7549991607666 C-27.757999420166016,13.225000381469727 -31.80299949645996,-7.659999847412109 -31.80299949645996,-7.659999847412109"/></g><g opacity="1" transform="matrix(1,0,0,1,259.8320007324219,347.9649963378906)"><path fill="rgb(237,238,245)" fill-opacity="1" d=" M43.930999755859375,73.17500305175781 C43.930999755859375,73.17500305175781 4.064000129699707,82.21399688720703 -36.194000244140625,75.31900024414062 C-74.95099639892578,68.68099975585938 -91.99600219726562,54.808998107910156 -92.23799896240234,28.815000534057617 C-92.4800033569336,2.821000099182129 -75.79199981689453,-29.989999771118164 -66.12200164794922,-41.354000091552734 C-39.43000030517578,-72.72100067138672 39.987998962402344,-82.21399688720703 64.00199890136719,-48.06399917602539 C80.46499633789062,-24.65399932861328 92.4800033569336,28.815000534057617 92.4800033569336,57.40800094604492"/><path stroke-linecap="round" stroke-linejoin="round" fill-opacity="0" stroke="rgb(153,160,163)" stroke-opacity="1" stroke-width="7" d=" M43.930999755859375,73.17500305175781 C43.930999755859375,73.17500305175781 4.064000129699707,82.21399688720703 -36.194000244140625,75.31900024414062 C-74.95099639892578,68.68099975585938 -91.99600219726562,54.808998107910156 -92.23799896240234,28.815000534057617 C-92.4800033569336,2.821000099182129 -75.79199981689453,-29.989999771118164 -66.12200164794922,-41.354000091552734 C-39.43000030517578,-72.72100067138672 39.987998962402344,-82.21399688720703 64.00199890136719,-48.06399917602539 C80.46499633789062,-24.65399932861328 92.4800033569336,28.815000534057617 92.4800033569336,57.40800094604492"/></g><g opacity="1" transform="matrix(1,0,0,1,193.07400512695312,409.98699951171875)"><path fill="rgb(237,238,245)" fill-opacity="1" d=" M-22.98200035095215,-53.02799987792969 C-22.98200035095215,-53.02799987792969 -32.994998931884766,-3.1619999408721924 -29.14299964904785,30.761999130249023 C-27.59000015258789,44.43899917602539 -18.34600067138672,50.16699981689453 -1.8680000305175781,51.59700012207031 C14.609999656677246,53.027000427246094 24.56100082397461,47.827999114990234 27.104000091552734,36.073001861572266 C28.948999404907227,27.542999267578125 32.99399948120117,6.658999919891357 32.99399948120117,6.658999919891357"/><path stroke-linecap="round" stroke-linejoin="round" fill-opacity="0" stroke="rgb(153,160,163)" stroke-opacity="1" stroke-width="7" d=" M-22.98200035095215,-53.02799987792969 C-22.98200035095215,-53.02799987792969 -32.994998931884766,-3.1619999408721924 -29.14299964904785,30.761999130249023 C-27.59000015258789,44.43899917602539 -18.34600067138672,50.16699981689453 -1.8680000305175781,51.59700012207031 C14.609999656677246,53.027000427246094 24.56100082397461,47.827999114990234 27.104000091552734,36.073001861572266 C28.948999404907227,27.542999267578125 32.99399948120117,6.658999919891357 32.99399948120117,6.658999919891357"/></g><g opacity="1" transform="matrix(1,0,0,1,213.46200561523438,438.7959899902344)"><path fill="rgb(237,238,245)" fill-opacity="1" d=" M-33.1609992980957,-35.59400177001953 C-33.1609992980957,-35.59400177001953 -33.680999755859375,1.7109999656677246 -26.18899917602539,17.516000747680664 C-19.631000518798828,31.35099983215332 -4.872000217437744,35.59400177001953 8.246000289916992,33.849998474121094 C23.43199920654297,31.83099937438965 33.680999755859375,19.11199951171875 32.7869987487793,-24.115999221801758"/><path stroke-linecap="round" stroke-linejoin="round" fill-opacity="0" stroke="rgb(153,160,163)" stroke-opacity="1" stroke-width="7" d=" M-33.1609992980957,-35.59400177001953 C-33.1609992980957,-35.59400177001953 -33.680999755859375,1.7109999656677246 -26.18899917602539,17.516000747680664 C-19.631000518798828,31.35099983215332 -4.872000217437744,35.59400177001953 8.246000289916992,33.849998474121094 C23.43199920654297,31.83099937438965 33.680999755859375,19.11199951171875 32.7869987487793,-24.115999221801758"/></g><g opacity="1" transform="matrix(1,0,0,1,214.0019989013672,443.7650146484375)"><path fill="rgb(255,255,255)" fill-opacity="1" d=" M-26.864999771118164,-14.694000244140625 C-23.83799934387207,-16.010000228881836 -16.361000061035156,-1.2690000534057617 -0.3400000035762787,-2.5959999561309814 C15.680999755859375,-3.9230000972747803 23.238000869750977,-14.538000106811523 25.354000091552734,-16.33300018310547 C27.4689998626709,-18.128000259399414 28.301000595092773,-8.684000015258789 26.184999465942383,0.9160000085830688 C24.069000244140625,10.515999794006348 14.177000045776367,18.128000259399414 -0.8989999890327454,17.385000228881836 C-15.152000427246094,16.68199920654297 -22.18000030517578,9.032999992370605 -24.67300033569336,0.8379999995231628 C-27.16699981689453,-7.35699987411499 -28.301000595092773,-14.069999694824219 -26.864999771118164,-14.694000244140625z"/></g></g></g><g transform="matrix(1.0319998264312744,0,0,1.0319998264312744,-8.191969871520996,16.780031204223633)" opacity="1" style="display: block;"><g opacity="1" transform="matrix(1,0,0,1,341.47698974609375,358.6969909667969)"><path fill="rgb(237,238,245)" fill-opacity="1" d=" M-15.180999755859375,-52.36600112915039 C-15.180999755859375,-52.36600112915039 -29.875,24.277000427246094 -29.875,24.277000427246094 C-29.875,24.277000427246094 -9.288000106811523,52.36600112915039 1.0729999542236328,50.22800064086914 C11.432999610900879,48.09000015258789 29.875,19.141000747680664 24.836999893188477,3.5239999294281006 C19.798999786376953,-12.093000411987305 -15.180999755859375,-52.36600112915039 -15.180999755859375,-52.36600112915039z"/></g><g opacity="1" transform="matrix(1,0,0,1,341.47698974609375,358.6969909667969)"><path stroke-linecap="round" stroke-linejoin="round" fill-opacity="0" stroke="rgb(153,160,163)" stroke-opacity="1" stroke-width="7" d=" M-15.180999755859375,-52.36600112915039 C-15.180999755859375,-52.36600112915039 19.798999786376953,-12.093000411987305 24.836999893188477,3.5239999294281006 C29.875,19.141000747680664 11.432999610900879,48.09000015258789 1.0729999542236328,50.22800064086914 C-9.288000106811523,52.36600112915039 -29.875,24.277000427246094 -29.875,24.277000427246094"/></g></g><g transform="matrix(1.0319998264312744,0,0,1.0319998264312744,-8.191969871520996,16.780031204223633)" opacity="1" style="display: block;"><g opacity="1" transform="matrix(1,0,0,1,0,0)"><g opacity="1" transform="matrix(1,0,0,1,357.6080017089844,142.33200073242188)"><path fill="rgb(255,255,255)" fill-opacity="1" d=" M-73.41600036621094,-41.91600036621094 C-73.41600036621094,-41.91600036621094 -36.797000885009766,-72.78099822998047 -11.640999794006348,-81.28399658203125 C13.515999794006348,-89.78800201416016 43.202999114990234,-80.33399963378906 59.11800003051758,-52.81100082397461 C75.03399658203125,-25.28700065612793 75.78399658203125,-4.23799991607666 59.69499969482422,19.844999313354492 C47.92399978637695,37.46699905395508 6.894000053405762,78.43199920654297 -3.25600004196167,84.11000061035156 C-13.406999588012695,89.78800201416016 -35.19300079345703,10.32800006866455 -55.487998962402344,-14.09000015258789 C-75.78399658203125,-38.507999420166016 -73.41600036621094,-41.91600036621094 -73.41600036621094,-41.91600036621094z"/></g><g opacity="1" transform="matrix(1,0,0,1,385.7170104980469,164.68099975585938)"><path fill="rgb(237,238,245)" fill-opacity="1" d=" M35.507999420166016,-58.81800079345703 C35.507999420166016,-58.81800079345703 45.00899887084961,-41.84199905395508 37.06100082397461,-20.43400001525879 C29.113000869750977,0.9739999771118164 3.7090001106262207,25.378999710083008 -4.922999858856201,34.00699996948242 C-13.555000305175781,42.6349983215332 -33.1349983215332,58.81800079345703 -33.1349983215332,58.81800079345703 C-33.1349983215332,58.81800079345703 -45.00899887084961,35.17599868774414 -45.00899887084961,35.17599868774414 C-45.00899887084961,35.17599868774414 -6.110000133514404,0.2150000035762787 13.45300006866455,-21.125999450683594 C33.01599884033203,-42.46699905395508 35.507999420166016,-58.81800079345703 35.507999420166016,-58.81800079345703z"/></g><g opacity="1" transform="matrix(1,0,0,1,347.4070129394531,108.22799682617188)"><path stroke-linecap="round" stroke-linejoin="round" fill-opacity="0" stroke="rgb(80,68,68)" stroke-opacity="1" stroke-width="6" d=" M17.847000122070312,-14.166000366210938 C17.847000122070312,-14.166000366210938 -1.718000054359436,-3.4040000438690186 -16.677000045776367,10.305999755859375"/></g><g opacity="1" transform="matrix(1,0,0,1,352.44000244140625,104.09200286865234)"><path stroke-linecap="round" stroke-linejoin="round" fill-opacity="0" stroke="rgb(80,68,68)" stroke-opacity="1" stroke-width="6" d=" M9.85200023651123,5.133999824523926 C9.85200023651123,5.133999824523926 2.759999990463257,-5.946000099182129 -7.859000205993652,-9.670999526977539"/></g><g opacity="1" transform="matrix(1,0,0,1,339.5190124511719,112.81800079345703)"><path stroke-linecap="round" stroke-linejoin="round" fill-opacity="0" stroke="rgb(80,68,68)" stroke-opacity="1" stroke-width="6" d=" M8.746000289916992,6.184000015258789 C8.746000289916992,6.184000015258789 1.0470000505447388,-5.120999813079834 -8.868000030517578,-9.293000221252441"/></g><g opacity="1" transform="matrix(1,0,0,1,357.6080017089844,142.33200073242188)"><path stroke-linecap="round" stroke-linejoin="round" fill-opacity="0" stroke="rgb(153,160,163)" stroke-opacity="1" stroke-width="7" d=" M-73.41600036621094,-41.91600036621094 C-73.41600036621094,-41.91600036621094 -36.797000885009766,-72.78099822998047 -11.640999794006348,-81.28399658203125 C13.515999794006348,-89.78800201416016 43.202999114990234,-80.33399963378906 59.11800003051758,-52.81100082397461 C75.03399658203125,-25.28700065612793 75.78399658203125,-4.23799991607666 59.69499969482422,19.844999313354492 C47.92399978637695,37.46699905395508 6.894000053405762,78.43199920654297 -3.25600004196167,84.11000061035156 C-13.406999588012695,89.78800201416016 -35.19300079345703,10.32800006866455 -55.487998962402344,-14.09000015258789 C-75.78399658203125,-38.507999420166016 -73.41600036621094,-41.91600036621094 -73.41600036621094,-41.91600036621094z"/></g></g></g><g transform="matrix(1.0319998264312744,0,0,1.0319998264312744,-8.191969871520996,16.780031204223633)" opacity="1" style="display: block;"><g opacity="1" transform="matrix(1,0,0,1,0,0)"><g opacity="1" transform="matrix(1,0,0,1,178.78199768066406,98.53299713134766)"><path fill="rgb(255,255,255)" fill-opacity="1" d=" M71.13700103759766,11.107999801635742 C71.13700103759766,11.107999801635742 51.06399917602539,-20.60300064086914 27.93899917602539,-45.41699981689453 C7.922999858856201,-66.89399719238281 -22.143999099731445,-65.58399963378906 -44.82099914550781,-50.632999420166016 C-67.49700164794922,-35.68199920654297 -76.77999877929688,-9.097999572753906 -75.43000030517578,8.541999816894531 C-74.08000183105469,26.183000564575195 -65.86000061035156,36.5629997253418 -53.0620002746582,51.72800064086914 C-40.263999938964844,66.89399719238281 12.116999626159668,51.67100143432617 37.77399826049805,38.42100143432617 C63.43000030517578,25.170000076293945 76.77999877929688,18.871999740600586 71.13700103759766,11.107999801635742z"/><path stroke-linecap="round" stroke-linejoin="round" fill-opacity="0" stroke="rgb(153,160,163)" stroke-opacity="1" stroke-width="7" d=" M71.13700103759766,11.107999801635742 C71.13700103759766,11.107999801635742 51.06399917602539,-20.60300064086914 27.93899917602539,-45.41699981689453 C7.922999858856201,-66.89399719238281 -22.143999099731445,-65.58399963378906 -44.82099914550781,-50.632999420166016 C-67.49700164794922,-35.68199920654297 -76.77999877929688,-9.097999572753906 -75.43000030517578,8.541999816894531 C-74.08000183105469,26.183000564575195 -65.86000061035156,36.5629997253418 -53.0620002746582,51.72800064086914 C-40.263999938964844,66.89399719238281 12.116999626159668,51.67100143432617 37.77399826049805,38.42100143432617 C63.43000030517578,25.170000076293945 76.77999877929688,18.871999740600586 71.13700103759766,11.107999801635742z"/></g><g opacity="1" transform="matrix(1,0,0,1,131.34800720214844,106.12200164794922)"><path fill="rgb(237,238,245)" fill-opacity="1" d=" M-11.49899959564209,-40.28900146484375 C-11.49899959564209,-40.28900146484375 -13.67199993133545,-33.4900016784668 -4.184999942779541,-16.01300048828125 C5.302000045776367,1.465000033378601 17.11199951171875,15.95300006866455 27.617000579833984,24.114999771118164 C27.617000579833984,24.114999771118164 12.529999732971191,39.86399841308594 2.128000020980835,40.07699966430664 C-8.27299976348877,40.28900146484375 -20.52400016784668,21.951000213623047 -23.781999588012695,7.377999782562256 C-27.617000579833984,-9.777000427246094 -19.584999084472656,-30.04800033569336 -11.49899959564209,-40.28900146484375z"/></g></g></g><g transform="matrix(1.0319998264312744,0,0,1.0319998264312744,-8.191969871520996,16.780031204223633)" opacity="1" style="display: block;"><g opacity="1" transform="matrix(1,0,0,1,0,0)"><g opacity="1" transform="matrix(1,0,0,1,251.53500366210938,270.5979919433594)"><path fill="rgb(237,238,245)" fill-opacity="1" d=" M94.53600311279297,-59.62799835205078 C102.32599639892578,-52.79899978637695 93.95999908447266,-18.625999450683594 83.12999725341797,7.5 C72.30000305175781,33.625 69.52899932861328,44.20199966430664 8.416999816894531,54.31800079345703 C-40.97700119018555,62.49399948120117 -81.97899627685547,80.53500366210938 -92.1520004272461,49.51300048828125 C-102.32599639892578,18.490999221801758 14.439000129699707,-52.946998596191406 53.404998779296875,-66.74099731445312 C92.37100219726562,-80.53399658203125 94.53600311279297,-59.62799835205078 94.53600311279297,-59.62799835205078z"/></g><g opacity="1" transform="matrix(1,0,0,1,2.1999998092651367,-0.30000072717666626)"><g opacity="1" transform="matrix(1,0,0,1,228.26400756835938,371.85699462890625)"><path fill="rgb(237,238,245)" fill-opacity="1" d=" M-33.70500183105469,-37.340999603271484 C-34.97600173950195,-21.634000778198242 -39.417999267578125,22.031999588012695 -9.281000137329102,29.68600082397461 C20.856000900268555,37.340999603271484 35.92499923706055,18.777999877929688 39.41899871826172,0.6520000100135803"/><path stroke-linecap="round" stroke-linejoin="round" fill-opacity="0" stroke="rgb(153,160,163)" stroke-opacity="1" stroke-width="7" d=" M-33.70500183105469,-37.340999603271484 C-34.97600173950195,-21.634000778198242 -39.417999267578125,22.031999588012695 -9.281000137329102,29.68600082397461 C20.856000900268555,37.340999603271484 35.92499923706055,18.777999877929688 39.41899871826172,0.6520000100135803"/></g><g opacity="1" transform="matrix(1,0,0,1,241.50999450683594,348.7690124511719)"><path fill="rgb(175,70,70)" fill-opacity="1" d=" M39.8390007019043,-44.54600143432617 C30.792999267578125,-31.968000411987305 22.20599937438965,6.97599983215332 16.84000015258789,23.687999725341797 C11.473999977111816,40.400001525878906 -5.23799991607666,48.67900085449219 -21.336999893188477,43.00600051879883 C-37.43600082397461,37.33300018310547 -39.8390007019043,20.774999618530273 -37.64099884033203,2.2230000495910645 C-35.44200134277344,-16.32900047302246 -32.98899841308594,-20.315000534057617 -32.98899841308594,-20.315000534057617 C-32.98899841308594,-20.315000534057617 18.68000030517578,-40.4119987487793 26.652000427246094,-44.54600143432617 C34.625,-48.68000030517578 39.8390007019043,-44.54600143432617 39.8390007019043,-44.54600143432617z"/></g><g opacity="1" transform="matrix(1,0,0,1,234.47500610351562,365.77398681640625)"><path fill="rgb(235,130,110)" fill-opacity="1" d=" M-1.4579999446868896,1.7079999446868896 C0.8450000286102295,1.3480000495910645 -1.3869999647140503,-5.4079999923706055 1.815000057220459,-11.741000175476074 C5.01800012588501,-18.073999404907227 12.347000122070312,-21.41900062561035 18.253000259399414,-20.707000732421875 C24.15999984741211,-19.996000289916992 24.586000442504883,-17.132999420166016 21.597999572753906,-8.8149995803833 C18.608999252319336,-0.49799999594688416 14.482000350952148,15.869000434875488 4.519000053405762,18.643999099731445 C-5.442999839782715,21.41900062561035 -15.902999877929688,21.20599937438965 -20.243999481201172,13.307000160217285 C-24.584999084472656,5.4079999923706055 -23.11199951171875,-1.7599999904632568 -17.18400001525879,-5.835000038146973 C-11.918000221252441,-9.454999923706055 -5.288000106811523,-9.708000183105469 -5.002999782562256,-6.743000030517578 C-4.7179999351501465,-3.7769999504089355 -3.734999895095825,2.063999891281128 -1.4579999446868896,1.7079999446868896z"/></g></g><g opacity="1" transform="matrix(1,0,0,1,201.55099487304688,199.55599975585938)"><path fill="rgb(255,255,255)" fill-opacity="1" d=" M30.888999938964844,-149.57000732421875 C19.639999389648438,-146.89300537109375 24.628000259399414,-133.85800170898438 24.628000259399414,-133.85800170898438 C24.628000259399414,-133.85800170898438 -43.89500045776367,-136.2760009765625 -71.8010025024414,-70.41000366210938 C-100.1050033569336,-3.6059999465942383 -108.82599639892578,54.53300094604492 -104.19499969482422,81.03099822998047 C-99.14700317382812,109.91699981689453 -74.95500183105469,143.41000366210938 -36.8390007019043,140.23300170898438 C-36.8390007019043,140.23300170898438 -10.10099983215332,155.1540069580078 39.84700012207031,135.99600219726562 C76.69400024414062,121.86299896240234 86.24299621582031,97.6520004272461 86.24299621582031,97.6520004272461 C86.24299621582031,97.6520004272461 126.94999694824219,46.444000244140625 151.47500610351562,23.8799991607666 C118.94999694824219,-36.555999755859375 115.23600006103516,-117.66300201416016 115.23600006103516,-117.66300201416016 C115.23600006103516,-117.66300201416016 84.40299987792969,-128.4499969482422 71.9219970703125,-135.04600524902344 C59.44200134277344,-141.64300537109375 42.13800048828125,-152.2469940185547 30.888999938964844,-149.57000732421875z"/></g><g opacity="1" transform="matrix(1,0,0,1,226.01800537109375,262.14599609375)"><path fill="rgb(237,238,245)" fill-opacity="1" d=" M129.156005859375,-39.874000549316406 C142.447998046875,-50.11199951171875 133.80799865722656,-78.33499908447266 127.60399627685547,-74.08399963378906 C121.4010009765625,-69.83300018310547 88.39900207519531,-27.118000030517578 36.28300094604492,0.5590000152587891 C-15.833999633789062,28.236000061035156 -70.42900085449219,19.267000198364258 -70.42900085449219,19.267000198364258 C-70.42900085449219,19.267000198364258 -122.7300033569336,14.329999923706055 -125.20500183105469,-41.731998443603516 C-125.20500183105469,-41.731998443603516 -133.29299926757812,-1.2740000486373901 -128.54200744628906,19.42300033569336 C-120.697998046875,53.59299850463867 -99.24099731445312,70.16500091552734 -87.38800048828125,74.02400207519531 C-75.53500366210938,77.88200378417969 -64.4000015258789,77.84400177001953 -61.689998626708984,77.92400360107422 C-58.97999954223633,78.00299835205078 -54.71900177001953,84.64199829101562 -29.378000259399414,83.0199966430664 C4.546000003814697,80.8479995727539 25.621000289916992,69.22100067138672 51.96500015258789,58.775001525878906 C63.65399932861328,43.30099868774414 111.98100280761719,-26.645000457763672 129.156005859375,-39.874000549316406z"/></g><g opacity="1" transform="matrix(1,0,0,1,201.55099487304688,199.55599975585938)"><path stroke-linecap="round" stroke-linejoin="round" fill-opacity="0" stroke="rgb(153,160,163)" stroke-opacity="1" stroke-width="7" d=" M115.23600006103516,-117.66300201416016 C115.23600006103516,-117.66300201416016 84.40299987792969,-128.4499969482422 71.9219970703125,-135.04600524902344 C59.44200134277344,-141.64300537109375 42.13800048828125,-152.2469940185547 30.888999938964844,-149.57000732421875 C19.639999389648438,-146.89300537109375 24.628000259399414,-133.85800170898438 24.628000259399414,-133.85800170898438 C24.628000259399414,-133.85800170898438 -44.7869987487793,-136.16200256347656 -71.8010025024414,-69.92500305175781 C-98.6510009765625,-4.090000152587891 -111.36000061035156,52.479000091552734 -104.68000030517578,81.03099822998047 C-98,109.58399963378906 -76.40899658203125,143.41000366210938 -38.292999267578125,140.23300170898438 C-38.292999267578125,140.23300170898438 -10.10099983215332,154.66900634765625 39.84700012207031,135.51100158691406 C76.69400024414062,121.37799835205078 76.06900024414062,121.39199829101562 76.06900024414062,121.39199829101562"/></g><g opacity="1" transform="matrix(1,0,0,1,338.2080078125,263.8609924316406)"><path fill="rgb(255,255,255)" fill-opacity="1" d=" M14.37399959564209,-40.36199951171875 C14.37399959564209,-40.36199951171875 0.9300000071525574,7.591000080108643 -14.37399959564209,40.362998962402344"/><path stroke-linecap="round" stroke-linejoin="round" fill-opacity="0" stroke="rgb(153,160,163)" stroke-opacity="1" stroke-width="7" d=" M14.37399959564209,-40.36199951171875 C14.37399959564209,-40.36199951171875 0.9300000071525574,7.591000080108643 -14.37399959564209,40.362998962402344"/></g></g></g><g transform="matrix(1.0319998264312744,0,0,1.0319998264312744,-8.191969871520996,16.780031204223633)" opacity="1" style="display: block;"><g opacity="1" transform="matrix(1,0,0,1,141.33099365234375,172.06700134277344)"><path fill="rgb(255,255,255)" fill-opacity="1" d=" M21.82900047302246,38.625 C29.930999755859375,33.70899963378906 40.055999755859375,20.732999801635742 40.95899963378906,-16.246000289916992 C41.78900146484375,-50.237998962402344 18.253999710083008,-51.2140007019043 5.688000202178955,-46.645999908447266 C-7.135000228881836,-41.98400115966797 -18.08300018310547,-29.89699935913086 -25.66699981689453,-3.938999891281128 C-32.17300033569336,18.32900047302246 -27.531999588012695,34.54100036621094 -19.266000747680664,39.577999114990234 C-7.809999942779541,46.55799865722656 12.246000289916992,44.439998626708984 21.82900047302246,38.625z"/></g><g opacity="1" transform="matrix(1,0,0,1,146.83299255371094,176.49200439453125)"><path fill="rgb(126,90,74)" fill-opacity="1" d=" M16.642000198364258,34.13999938964844 C28.069000244140625,28.37299919128418 40.553001403808594,-5.572999954223633 31.400999069213867,-25.850000381469727 C22.24799919128418,-46.12699890136719 -2.7769999504089355,-41.21500015258789 -16.496000289916992,-20.690000534057617 C-30.21500015258789,-0.16599999368190765 -28.924999237060547,26.520999908447266 -18.575000762939453,34.14400100708008 C-8.223999977111816,41.766998291015625 11.442000389099121,36.76499938964844 16.642000198364258,34.13999938964844z"/></g><g opacity="1" transform="matrix(1,0,0,1,146.3070068359375,181.49000549316406)"><path fill="rgb(37,32,32)" fill-opacity="1" d=" M10.09000015258789,31.96500015258789 C22.232999801635742,31.236000061035156 36.02199935913086,0.953000009059906 30.215999603271484,-18.270999908447266 C24.40999984741211,-37.49399948120117 -1.1649999618530273,-29.378000259399414 -9.267999649047852,-14.741000175476074 C-17.371999740600586,-0.10300000011920929 -21.48699951171875,33.86000061035156 10.09000015258789,31.96500015258789z"/></g><g opacity="1" transform="matrix(1,0,0,1,144.04800415039062,166.81300354003906)"><path fill="rgb(255,255,255)" fill-opacity="1" d=" M17.242956161499023,-10.435419082641602 C14.718682289123535,-22.880672454833984 -14.030595779418945,-10.90114688873291 -11.03659439086914,3.13927960395813 C-8.042947769165039,17.179706573486328 19.912181854248047,2.725653886795044 17.242956161499023,-10.435419082641602z"/></g><g opacity="1" transform="matrix(1,0,0,1,150.41299438476562,188.6999969482422)"><path fill="rgb(255,255,255)" fill-opacity="1" d=" M7.624338150024414,-8.58480167388916 C6.255077362060547,-12.72938060760498 -2.248896360397339,-8.874855995178223 -1.2614083290100098,-4.237532615661621 C-0.27356594800949097,0.4007902145385742 8.993598937988281,-4.44022274017334 7.624338150024414,-8.58480167388916z"/></g><g opacity="1" transform="matrix(1,0,0,1,141.33099365234375,172.06700134277344)"><path fill="rgb(255,255,255)" fill-opacity="1" d=" M27.01099967956543,45.02199935913086 C37.09700012207031,38.902000427246094 51.257999420166016,5.9079999923706055 49.013999938964844,-21.774999618530273 C46.77000045776367,-49.45899963378906 27.381999969482422,-57.902000427246094 10.847999572753906,-54.01300048828125 C-5.685999870300293,-50.124000549316406 -16.27899932861328,-29.381000518798828 -26.275999069213867,-2.2869999408721924 C-36.27299880981445,24.80699920654297 -30.250999450683594,41.58100128173828 -13.961000442504883,46.5099983215332 C2.0230000019073486,51.34600067138672 15.081999778747559,52.2599983215332 27.01099967956543,45.02199935913086z M21.82900047302246,38.625 C12.246000289916992,44.439998626708984 -7.809999942779541,46.55799865722656 -19.266000747680664,39.577999114990234 C-27.531999588012695,34.54100036621094 -32.17300033569336,18.32900047302246 -25.66699981689453,-3.938999891281128 C-18.08300018310547,-29.89699935913086 -7.135000228881836,-41.98400115966797 5.688000202178955,-46.645999908447266 C18.253999710083008,-51.2140007019043 41.78900146484375,-50.237998962402344 40.95899963378906,-16.246000289916992 C40.055999755859375,20.732999801635742 29.930999755859375,33.70899963378906 21.82900047302246,38.625z"/></g><g opacity="1" transform="matrix(1,0,0,1,141.33099365234375,172.06700134277344)"><path stroke-linecap="round" stroke-linejoin="round" fill-opacity="0" stroke="rgb(138,167,172)" stroke-opacity="1" stroke-width="7" d=" M21.82900047302246,38.625 C29.930999755859375,33.70899963378906 40.055999755859375,20.732999801635742 40.95899963378906,-16.246000289916992 C41.78900146484375,-50.237998962402344 18.253999710083008,-51.2140007019043 5.688000202178955,-46.645999908447266 C-7.135000228881836,-41.98400115966797 -18.08300018310547,-29.89699935913086 -25.66699981689453,-3.938999891281128 C-32.17300033569336,18.32900047302246 -27.531999588012695,34.54100036621094 -19.266000747680664,39.577999114990234 C-7.809999942779541,46.55799865722656 12.246000289916992,44.439998626708984 21.82900047302246,38.625z"/></g></g><g transform="matrix(1.0319998264312744,0,0,1.0319998264312744,-8.191969871520996,16.780031204223633)" opacity="1" style="display: block;"><g opacity="1" transform="matrix(1,0,0,1,252.0229949951172,190.80099487304688)"><path fill="rgb(126,90,74)" fill-opacity="1" d=" M27.52199935913086,40.755001068115234 C38.845001220703125,30.43600082397461 54.606998443603516,-19.80299949645996 27.19499969482422,-36.612998962402344 C6.7179999351501465,-49.17100143432617 -22.024999618530273,-33.92300033569336 -30.5310001373291,-8.572999954223633 C-39.03799819946289,16.777000427246094 -34.45199966430664,31.648000717163086 -16.93899917602539,40.71500015258789 C1.7280000448226929,50.37900161743164 22.368999481201172,45.45100021362305 27.52199935913086,40.755001068115234z"/></g><g opacity="1" transform="matrix(1,0,0,1,258.0920104980469,198.7729949951172)"><path fill="rgb(37,32,32)" fill-opacity="1" d=" M14.017000198364258,36.59700012207031 C34.48699951171875,33.99800109863281 39.6609992980957,-10.923999786376953 25.19099998474121,-26.40399932861328 C7.35699987411499,-45.48400115966797 -19.92099952697754,-30.639999389648438 -27.43899917602539,-5.855000019073486 C-34.31100082397461,16.79800033569336 -27.74799919128418,41.900001525878906 14.017000198364258,36.59700012207031z"/></g><g opacity="1" transform="matrix(1,0,0,1,242.45399475097656,176.21099853515625)"><path fill="rgb(255,255,255)" fill-opacity="1" d=" M-10.869633674621582,12.892870903015137 C-19.105653762817383,1.80708646774292 11.507933616638184,-23.546049118041992 20.69135284423828,-10.870658874511719 C29.875415802001953,1.8057321310043335 -2.1609139442443848,24.61536979675293 -10.869633674621582,12.892870903015137z"/></g><g opacity="1" transform="matrix(1,0,0,1,255.4600067138672,197.22500610351562)"><path fill="rgb(255,255,255)" fill-opacity="1" d=" M-3.505418062210083,5.241046905517578 C-5.79302453994751,1.0333592891693115 3.2361297607421875,-6.100510597229004 6.180627822875977,-2.0076146125793457 C9.125479698181152,2.0862812995910645 -1.2178112268447876,9.448734283447266 -3.505418062210083,5.241046905517578z"/></g><g opacity="1" transform="matrix(1,0,0,1,247.2689971923828,187.6269989013672)"><path stroke-linecap="round" stroke-linejoin="round" fill-opacity="0" stroke="rgb(138,167,172)" stroke-opacity="1" stroke-width="7" d=" M-39.2140007019043,26.350000381469727 C-45.08000183105469,16.81800079345703 -35.823001861572266,-18.27400016784668 -23.31399917602539,-37.51300048828125 C-8.22599983215332,-60.71799850463867 21.540000915527344,-57.88800048828125 32.733001708984375,-45.29100036621094 C50.88199996948242,-24.864999771118164 49.439998626708984,-1.3730000257492065 45.72700119018555,22.509000778198242 C42.013999938964844,46.39099884033203 19.950000762939453,55.8120002746582 3.763000011444092,50.58399963378906 C-12.119000434875488,45.45399856567383 -32.2760009765625,37.625 -39.2140007019043,26.350000381469727z"/></g><g opacity="1" transform="matrix(1,0,0,1,245.3090057373047,179.26499938964844)"><path fill="rgb(138,167,172)" fill-opacity="1" d=" M-37.25400161743164,34.71099853515625 C-30.31599998474121,45.986000061035156 -10.15999984741211,53.814998626708984 5.7220001220703125,58.94499969482422 C21.909000396728516,64.1729965209961 43.9739990234375,54.75199890136719 47.6870002746582,30.8700008392334 C51.400001525878906,6.98799991607666 52.84199905395508,-16.503000259399414 34.69300079345703,-36.92900085449219 C23.5,-49.5260009765625 -6.265999794006348,-52.356998443603516 -21.354000091552734,-29.152000427246094 C-33.862998962402344,-9.913000106811523 -43.119998931884766,25.179000854492188 -37.25400161743164,34.71099853515625z M22.780000686645508,-69.59400177001953 C42.5099983215332,-65.94000244140625 70.35700225830078,-36.53200149536133 68.40799713134766,7.843999862670898 C66.45800018310547,52.21900177001953 48.2400016784668,70.46299743652344 24.906999588012695,71.05999755859375 C8.20300006866455,71.48699951171875 -13.095000267028809,65.3759994506836 -32.645999908447266,55.96500015258789 C-52.196998596191406,46.55500030517578 -60.42499923706055,30.885000228881836 -53.358001708984375,3.075000047683716 C-46.29199981689453,-24.733999252319336 -20.09000015258789,-77.53399658203125 22.780000686645508,-69.59400177001953z"/></g></g><g transform="matrix(1.0319998264312744,0,0,1.0319998264312744,-8.191969871520996,16.780031204223633)" opacity="1" style="display: block;"><g opacity="1" transform="matrix(1,0,0,1,164.48300170898438,89.38500213623047)"><path fill="rgb(48,43,43)" fill-opacity="1" d=" M26.187000274658203,-5.136000156402588 C18.375999450683594,-3.003000020980835 10.38700008392334,-1.2020000219345093 2.882999897003174,1.9700000286102295 C-4.681000232696533,5.165999889373779 -5.986999988555908,6.0329999923706055 -10.602999687194824,8.824999809265137 C-10.602999687194824,8.824999809265137 -13.722999572753906,10.237000465393066 -13.722999572753906,10.237000465393066 C-14.746000289916992,11.130000114440918 -17.229000091552734,11.765000343322754 -18.94700050354004,9.880000114440918 C-20.52199935913086,8.152000427246094 -19.07699966430664,4.410999774932861 -18.382999420166016,3.500999927520752 C-11.512999534606934,-5.489999771118164 -6.26200008392334,-7.340000152587891 3.369999885559082,-13.260000228881836 C8.425999641418457,-16.368000030517578 13.633999824523926,-17.951000213623047 19.54199981689453,-19.402000427246094 C23.18199920654297,-20.29599952697754 27.979000091552734,-21.183000564575195 30.798999786376953,-17.97100067138672 C31.461000442504883,-17.215999603271484 31.937999725341797,-16.312999725341797 32.2869987487793,-15.37600040435791 C33.61199951171875,-11.819999694824219 31.909000396728516,-6.742000102996826 28,-5.638999938964844 C27.39699935913086,-5.468999862670898 26.79199981689453,-5.301000118255615 26.187000274658203,-5.136000156402588z"/></g><g opacity="1" transform="matrix(1,0,0,1,257.4800109863281,94.58999633789062)"><path fill="rgb(48,43,43)" fill-opacity="1" d=" M-17.753000259399414,-6.002999782562256 C-9.795000076293945,-2.8480000495910645 -3.6649999618530273,2.0829999446868896 3.8359999656677246,6.15500020980835 C11.395999908447266,10.260000228881836 16.809999465942383,13.42300033569336 23.447999954223633,18.996999740600586 C23.447999954223633,18.996999740600586 24.868000030517578,19.448999404907227 24.868000030517578,19.448999404907227 C25.83099937438965,20.430999755859375 29.055999755859375,20.323999404907227 30.128999710083008,19.507999420166016 C31.069000244140625,18.792999267578125 31.860000610351562,15.64900016784668 31.2450008392334,14.699999809265137 C25.167999267578125,5.318999767303467 16.73200035095215,-2.681999921798706 7.34499979019165,-9.62600040435791 C2.4170000553131104,-13.270999908447266 -2.8929998874664307,-16.905000686645508 -8.498000144958496,-19.764999389648438 C-12.003999710083008,-21.554000854492188 -16.957000732421875,-23.231000900268555 -20.34600067138672,-20.672000885009766 C-21.141000747680664,-20.070999145507812 -21.761999130249023,-19.304000854492188 -22.250999450683594,-18.486000061035156 C-24.107999801635742,-15.383999824523926 -23.45599937438965,-8.232999801635742 -19.47800064086914,-6.620999813079834 C-18.86400032043457,-6.373000144958496 -18.3700008392334,-6.248000144958496 -17.753000259399414,-6.002999782562256z"/></g></g><g transform="matrix(1.0319998264312744,0,0,1.0319998264312744,-4.27039909362793,20.08244514465332)" opacity="1" style="display: block;"><g opacity="1" transform="matrix(1,0,0,1,0,0)"><g opacity="1" transform="matrix(1,0,0,1,159.5749969482422,327.4519958496094)"><path stroke-linecap="round" stroke-linejoin="round" fill-opacity="0" stroke="rgb(153,160,163)" stroke-opacity="1" stroke-width="7" d=" M9.345000267028809,11.680999755859375 C-2.821000099182129,4.591000080108643 -3.9709999561309814,-10.468999862670898 -3.9709999561309814,-10.468999862670898"/></g><g opacity="1" transform="matrix(1,0,0,1,167.91099548339844,274.7439880371094)"><path fill="rgb(48,43,43)" fill-opacity="1" d=" M4.35699987411499,-48.29899978637695 C29.645000457763672,-45.22100067138672 69.1989974975586,-30.951000213623047 67.30799865722656,-3.1710000038146973 C65.5989990234375,21.944000244140625 37.01300048828125,36.220001220703125 16.450000762939453,43.32899856567383 C-4.11299991607666,50.4379997253418 -20.243999481201172,52.5359992980957 -38.428001403808594,37.00400161743164 C-56.61199951171875,21.472000122070312 -69.1989974975586,-2.252000093460083 -60.486000061035156,-21.707000732421875 C-51.77299880981445,-41.16299819946289 -30.441999435424805,-52.53499984741211 4.35699987411499,-48.29899978637695z"/></g><g opacity="1" transform="matrix(1,0,0,1,171.4530029296875,256.656005859375)"><path fill="rgb(80,68,68)" fill-opacity="1" d=" M63.763999938964844,14.918999671936035 C63.763999938964844,14.918999671936035 38.064998626708984,34.45000076293945 -11.031999588012695,26.753000259399414 C-44.5099983215332,21.511999130249023 -58.73500061035156,8.64799976348877 -65.01200103759766,-1.1770000457763672 C-64.71499633789062,-2.003000020980835 -64.39099884033203,-2.819000005722046 -64.02999877929688,-3.624000072479248 C-55.31800079345703,-23.072999954223633 -33.98500061035156,-34.45000076293945 0.8169999718666077,-30.211999893188477 C26.104999542236328,-27.134000778198242 65.01200103759766,-12.89900016784668 63.763999938964844,14.918999671936035z"/></g></g></g><g transform="matrix(1.0525999069213867,0.009185911156237125,-0.009185911156237125,1.0525999069213867,-8.517068862915039,9.437488555908203)" opacity="1" style="display: block;"><g opacity="1" transform="matrix(1,0,0,1,331.37799072265625,389.66900634765625)"><path fill="rgb(59,120,49)" fill-opacity="1" d=" M9.065999984741211,-63.21200180053711 C9.065999984741211,-63.21200180053711 6.5269999504089355,-35.64799880981445 5.409999847412109,8.085000038146973 C4.291999816894531,51.81700134277344 10.029000282287598,71.3740005493164 7.23799991607666,73.99099731445312 C4.446000099182129,76.60900115966797 -6.640999794006348,65.05999755859375 -8.335000038146973,55.20500183105469 C-10.029000282287598,45.349998474121094 -4.793000221252441,-49.814998626708984 -1.2510000467300415,-63.21200180053711 C2.2909998893737793,-76.60900115966797 9.461999893188477,-67.96700286865234 9.065999984741211,-63.21200180053711z"/></g><g opacity="1" transform="matrix(1,0,0,1,338.2279968261719,313.3890075683594)"><path fill="rgb(59,120,49)" fill-opacity="1" d=" M-20.21299934387207,0 C-20.21299934387207,9.182999610900879 -11.163000106811523,16.62700080871582 0,16.62700080871582 C11.163999557495117,16.62700080871582 20.214000701904297,9.182999610900879 20.214000701904297,0 C20.214000701904297,-9.182999610900879 11.163999557495117,-16.62700080871582 0,-16.62700080871582 C-11.163000106811523,-16.62700080871582 -20.21299934387207,-9.182999610900879 -20.21299934387207,0z"/></g><g opacity="1" transform="matrix(1,0,0,1,343.4440002441406,238.80499267578125)"><path fill="rgb(235,53,53)" fill-opacity="1" d=" M-5.236000061035156,62.654998779296875 C32.62699890136719,65.99600219726562 45.88999938964844,33.47999954223633 39.88600158691406,-2.5399999618530273 C33.88199996948242,-38.558998107910156 17.972999572753906,-63.80400085449219 7.368000030517578,-64.9000015258789 C-3.23799991607666,-65.99600219726562 -27.402000427246094,-43.05699920654297 -36.645999908447266,-3.572999954223633 C-45.89099884033203,35.90999984741211 -26.139999389648438,60.81100082397461 -5.236000061035156,62.654998779296875z"/><path stroke-linecap="round" stroke-linejoin="round" fill-opacity="0" stroke="rgb(173,28,28)" stroke-opacity="1" stroke-width="7" d=" M-5.236000061035156,62.654998779296875 C32.62699890136719,65.99600219726562 45.88999938964844,33.47999954223633 39.88600158691406,-2.5399999618530273 C33.88199996948242,-38.558998107910156 17.972999572753906,-63.80400085449219 7.368000030517578,-64.9000015258789 C-3.23799991607666,-65.99600219726562 -27.402000427246094,-43.05699920654297 -36.645999908447266,-3.572999954223633 C-45.89099884033203,35.90999984741211 -26.139999389648438,60.81100082397461 -5.236000061035156,62.654998779296875z"/></g><g opacity="1" transform="matrix(1,0,0,1,373.2909851074219,244.6269989013672)"><path fill="rgb(235,53,53)" fill-opacity="1" d=" M-25.993999481201172,68.76200103759766 C-6.110000133514404,69.052001953125 11.182000160217285,60.520999908447266 21.09600067138672,40.577999114990234 C31.010000228881836,20.635000228881836 28.474000930786133,-0.41200000047683716 22.709999084472656,-21.128999710083008 C16.945999145507812,-41.84600067138672 23.17099952697754,-57.999000549316406 16.253999710083008,-63.525001525878906 C9.338000297546387,-69.052001953125 -0.4779999852180481,-58.215999603271484 -0.4779999852180481,-58.215999603271484 C-0.4779999852180481,-58.215999603271484 -14.40999984741211,-64.27999877929688 -22.709999084472656,-48.79800033569336 C-31.010000228881836,-33.316001892089844 -25.993999481201172,68.76200103759766 -25.993999481201172,68.76200103759766z"/></g><g opacity="1" transform="matrix(1,0,0,1,376.2449951171875,220.96600341796875)"><path fill="rgb(255,75,75)" fill-opacity="1" d=" M-6.992000102996826,-33.27799987792969 C-2.4619998931884766,-31.38599967956543 1.6430000066757202,-38.029998779296875 6.617000102996826,-39.27299880981445 C11.592000007629395,-40.516998291015625 15.850000381469727,-38.11899948120117 15.39799976348877,-27.625 C14.946000099182129,-17.1299991607666 14.430999755859375,-11.71500015258789 19.18000030517578,3.5490000247955322 C23.92799949645996,18.812000274658203 22.216999053955078,29 12.607000350952148,33.52299880981445 C2.996000051498413,38.04499816894531 -12.041000366210938,23.43899917602539 -17.128999710083008,2.5329999923706055 C-22.216999053955078,-18.371999740600586 -15.923999786376953,-37.00899887084961 -6.992000102996826,-33.27799987792969z"/></g><g opacity="1" transform="matrix(1,0,0,1,373.2909851074219,244.6269989013672)"><path stroke-linecap="round" stroke-linejoin="round" fill-opacity="0" stroke="rgb(173,28,28)" stroke-opacity="1" stroke-width="7" d=" M-25.993999481201172,68.76200103759766 C-6.110000133514404,69.052001953125 11.182000160217285,60.520999908447266 21.09600067138672,40.577999114990234 C31.010000228881836,20.635000228881836 28.474000930786133,-0.41200000047683716 22.709999084472656,-21.128999710083008 C16.945999145507812,-41.84600067138672 23.17099952697754,-57.999000549316406 16.253999710083008,-63.525001525878906 C9.338000297546387,-69.052001953125 -0.4779999852180481,-58.215999603271484 -0.4779999852180481,-58.215999603271484 C-0.4779999852180481,-58.215999603271484 -14.40999984741211,-64.27999877929688 -22.709999084472656,-48.79800033569336 C-31.010000228881836,-33.316001892089844 -25.993999481201172,68.76200103759766 -25.993999481201172,68.76200103759766z"/></g><g opacity="1" transform="matrix(1,0,0,1,376.91400146484375,197.2480010986328)"><path stroke-linecap="round" stroke-linejoin="round" fill-opacity="0" stroke="rgb(173,28,28)" stroke-opacity="1" stroke-width="7" d=" M-4.10099983215332,-10.836000442504883 C2.25600004196167,-5.072000026702881 4.10099983215332,10.836000442504883 4.10099983215332,10.836000442504883"/></g><g opacity="1" transform="matrix(1,0,0,1,316.1969909667969,234.70599365234375)"><path fill="rgb(235,53,53)" fill-opacity="1" d=" M-6.574999809265137,65.37000274658203 C-22.792999267578125,54.534000396728516 -37.654998779296875,28.5939998626709 -29.41699981689453,0.5249999761581421 C-21.179000854492188,-27.54400062561035 -3.4639999866485596,-31.926000595092773 0.5899999737739563,-47.141998291015625 C4.64300012588501,-62.358001708984375 11.177000045776367,-65.37000274658203 20.590999603271484,-53.604000091552734 C30.003999710083008,-41.8390007019043 37.65599822998047,-28.0049991607666 36.59700012207031,-2.183000087738037 C35.53799819946289,23.638999938964844 12.847000122070312,59.66400146484375 5.171000003814697,62.055999755859375 C-2.503999948501587,64.447998046875 -6.574999809265137,65.37000274658203 -6.574999809265137,65.37000274658203z"/></g><g opacity="1" transform="matrix(1,0,0,1,324.3039855957031,199.6219940185547)"><path fill="rgb(255,75,75)" fill-opacity="1" d=" M23.490999221801758,5.711999893188477 C19.988000869750977,-9.90999984741211 7.014999866485596,-26.055999755859375 2.4619998931884766,-25.704999923706055 C-2.0910000801086426,-25.354999542236328 -5.7829999923706055,-11.46399974822998 -9.288999557495117,-6.093999862670898 C-12.795999526977539,-0.7239999771118164 -23.101999282836914,9.54800033569336 -25.670000076293945,14.800999641418457 C-28.238000869750977,20.05500030517578 26.738000869750977,20.19499969482422 23.490999221801758,5.711999893188477z"/></g><g opacity="1" transform="matrix(1,0,0,1,316.1969909667969,234.70599365234375)"><path stroke-linecap="round" stroke-linejoin="round" fill-opacity="0" stroke="rgb(173,28,28)" stroke-opacity="1" stroke-width="7" d=" M-6.574999809265137,65.37000274658203 C-22.792999267578125,54.534000396728516 -37.654998779296875,28.5939998626709 -29.41699981689453,0.5249999761581421 C-21.179000854492188,-27.54400062561035 -3.4639999866485596,-31.926000595092773 0.5899999737739563,-47.141998291015625 C4.64300012588501,-62.358001708984375 11.177000045776367,-65.37000274658203 20.590999603271484,-53.604000091552734 C30.003999710083008,-41.8390007019043 37.65599822998047,-28.0049991607666 36.59700012207031,-2.183000087738037 C35.53799819946289,23.638999938964844 12.847000122070312,59.66400146484375 5.171000003814697,62.055999755859375 C-2.503999948501587,64.447998046875 -6.574999809265137,65.37000274658203 -6.574999809265137,65.37000274658203z"/></g><g opacity="1" transform="matrix(1,0,0,1,337.10198974609375,252.30299377441406)"><path fill="rgb(235,53,53)" fill-opacity="1" d=" M12.015000343322754,-61.59000015258789 C21.729000091552734,-59.97800064086914 46.46500015258789,-26.0049991607666 46.22700119018555,12.958999633789062 C45.987998962402344,51.92300033569336 22.70199966430664,63.79399871826172 -3.121000051498413,61.08599853515625 C-28.94300079345703,58.37900161743164 -46.46500015258789,37.60100173950195 -40.93199920654297,5.683000087738037 C-35.39899826049805,-26.235000610351562 -1.2680000066757202,-63.79399871826172 12.015000343322754,-61.59000015258789z"/></g><g opacity="1" transform="matrix(1,0,0,1,341.5169982910156,234.16799926757812)"><path fill="rgb(255,75,75)" fill-opacity="1" d=" M6.315000057220459,-39.415000915527344 C10.986000061035156,-38.9900016784668 21.115999221801758,-26.70599937438965 30.44700050354004,-4.826000213623047 C39.777000427246094,17.05299949645996 37.750999450683594,29.118999481201172 25.652999877929688,34.749000549316406 C13.555000305175781,40.380001068115234 14.036999702453613,16.56999969482422 8.888999938964844,16.56999969482422 C3.740999937057495,16.56999969482422 8.994000434875488,38.611000061035156 3.069999933242798,39.25400161743164 C-2.8550000190734863,39.89799880981445 3.315999984741211,7.400000095367432 -3.309000015258789,6.918000221252441 C-9.934000015258789,6.434999942779541 -5.9120001792907715,34.10599899291992 -14.116000175476074,37.32400131225586 C-22.320999145507812,40.54100036621094 -36.71900177001953,28.440000534057617 -38.24800109863281,17.26799964904785 C-39.777000427246094,6.0970001220703125 -6.072999954223633,-40.54100036621094 6.315000057220459,-39.415000915527344z"/></g><g opacity="1" transform="matrix(1,0,0,1,337.10198974609375,252.30299377441406)"><path stroke-linecap="round" stroke-linejoin="round" fill-opacity="0" stroke="rgb(173,28,28)" stroke-opacity="1" stroke-width="7" d=" M12.015000343322754,-61.59000015258789 C21.729000091552734,-59.97800064086914 46.46500015258789,-26.0049991607666 46.22700119018555,12.958999633789062 C45.987998962402344,51.92300033569336 22.70199966430664,63.79399871826172 -3.121000051498413,61.08599853515625 C-28.94300079345703,58.37900161743164 -46.46500015258789,37.60100173950195 -40.93199920654297,5.683000087738037 C-35.39899826049805,-26.235000610351562 -1.2680000066757202,-63.79399871826172 12.015000343322754,-61.59000015258789z"/></g><g opacity="1" transform="matrix(1,0,0,1,337.9859924316406,386.2749938964844)"><path fill="rgb(237,238,245)" fill-opacity="1" d=" M13.935999870300293,-27.062999725341797 C13.935999870300293,-27.062999725341797 -2.9010000228881836,-38.513999938964844 -17.680999755859375,-31.60300064086914 C-32.46099853515625,-24.69099998474121 -40.07699966430664,0.3569999933242798 -32.9010009765625,15.013999938964844 C-25.72599983215332,29.67099952697754 3.0290000438690186,38.513999938964844 14.916999816894531,30.149999618530273 C26.80500030517578,21.785999298095703 40.07699966430664,-5.747000217437744 26.50200080871582,-28.50200080871582"/><path stroke-linecap="round" stroke-linejoin="round" fill-opacity="0" stroke="rgb(153,160,163)" stroke-opacity="1" stroke-width="7" d=" M13.935999870300293,-27.062999725341797 C13.935999870300293,-27.062999725341797 -2.9010000228881836,-38.513999938964844 -17.680999755859375,-31.60300064086914 C-32.46099853515625,-24.69099998474121 -40.07699966430664,0.3569999933242798 -32.9010009765625,15.013999938964844 C-25.72599983215332,29.67099952697754 3.0290000438690186,38.513999938964844 14.916999816894531,30.149999618530273 C26.80500030517578,21.785999298095703 40.07699966430664,-5.747000217437744 26.50200080871582,-28.50200080871582"/></g><g opacity="1" transform="matrix(1,0,0,1,335.0419921875,378.4540100097656)"><path fill="rgb(255,255,255)" fill-opacity="1" d=" M7.734000205993652,-19.621999740600586 C12.15999984741211,-17.7189998626709 28.104000091552734,-9.885000228881836 28.86400032043457,2.5759999752044678 C29.624000549316406,15.038000106811523 21.392000198364258,24.656999588012695 -1.0360000133514404,19.384000778198242 C-23.464000701904297,14.111000061035156 -29.624000549316406,-1.128000020980835 -22.768999099731445,-11.656000137329102 C-15.913000106811523,-22.18400001525879 -3.9760000705718994,-24.656999588012695 7.734000205993652,-19.621999740600586z"/></g><g opacity="1" transform="matrix(1,0,0,1,314.8160095214844,353.1969909667969)"><path fill="rgb(81,156,68)" fill-opacity="1" d=" M13.961000442504883,-8.87399959564209 C5.90500020980835,-19.086000442504883 -6.611999988555908,-13.147000312805176 -15.310999870300293,-4.026000022888184 C-22.6299991607666,3.6470000743865967 -27.246999740600586,13.571999549865723 -24.23200035095215,18.025999069213867 C-21.384000778198242,22.233999252319336 -10.552000045776367,21.724000930786133 -0.6380000114440918,18.038000106811523 C12.187000274658203,13.270000457763672 23.47599983215332,3.187000036239624 13.961000442504883,-8.87399959564209z"/><path stroke-linecap="round" stroke-linejoin="round" fill-opacity="0" stroke="rgb(59,120,49)" stroke-opacity="1" stroke-width="7" d=" M13.961000442504883,-8.87399959564209 C5.90500020980835,-19.086000442504883 -6.611999988555908,-13.147000312805176 -15.310999870300293,-4.026000022888184 C-22.6299991607666,3.6470000743865967 -27.246999740600586,13.571999549865723 -24.23200035095215,18.025999069213867 C-21.384000778198242,22.233999252319336 -10.552000045776367,21.724000930786133 -0.6380000114440918,18.038000106811523 C12.187000274658203,13.270000457763672 23.47599983215332,3.187000036239624 13.961000442504883,-8.87399959564209z"/></g><g opacity="1" transform="matrix(1,0,0,1,350.2359924316406,354.26300048828125)"><path fill="rgb(81,156,68)" fill-opacity="1" d=" M-14.498000144958496,-8.597999572753906 C-23.110000610351562,2.8369998931884766 -11.430000305175781,14.517000198364258 1.0169999599456787,20.17300033569336 C9.395000457763672,23.979999542236328 18.118999481201172,25.05699920654297 21.236000061035156,21.490999221801758 C25.753000259399414,16.323999404907227 18.242000579833984,-0.734000027179718 7.955999851226807,-9.446000099182129 C0.7739999890327454,-15.529000282287598 -7.760000228881836,-17.542999267578125 -14.498000144958496,-8.597999572753906z"/><path stroke-linecap="round" stroke-linejoin="round" fill-opacity="0" stroke="rgb(59,120,49)" stroke-opacity="1" stroke-width="7" d=" M-14.498000144958496,-8.597999572753906 C-23.110000610351562,2.8369998931884766 -11.430000305175781,14.517000198364258 1.0169999599456787,20.17300033569336 C9.395000457763672,23.979999542236328 18.118999481201172,25.05699920654297 21.236000061035156,21.490999221801758 C25.753000259399414,16.323999404907227 18.242000579833984,-0.734000027179718 7.955999851226807,-9.446000099182129 C0.7739999890327454,-15.529000282287598 -7.760000228881836,-17.542999267578125 -14.498000144958496,-8.597999572753906z"/></g></g></g></svg>